<svg width="58" height="57" fill="none" xmlns="http://www.w3.org/2000/svg"><g clip-path="url(#clip0)"><path d="M13.097 20.226c2.583 0 4.677-2.058 4.677-4.597 0-2.539-2.094-4.597-4.677-4.597-2.583 0-4.678 2.058-4.678 4.597 0 2.539 2.095 4.597 4.678 4.597z" fill="#FFDD63"/><path d="M17.439 13.577l-1.2-1.412-4.955 4.059-1.267-1.245-1.323 1.3 2.474 2.433 6.27-5.135zm17.174-.707H20.58v1.84h14.032v-1.84zm1.871 3.678H20.58v1.839h15.903v-1.839zM17.439 22.77l-1.2-1.412-4.955 4.06-1.267-1.246-1.323 1.3 2.474 2.433 6.27-5.135zm22.787-.706H20.58v1.84h19.645v-1.84zm-15.903 3.678H20.58v1.839h3.742v-1.84zm15.903 0H26.194v1.839h14.032v-1.84zm-22.787 6.222l-1.2-1.412-4.955 4.059-1.267-1.245-1.323 1.3 2.474 2.433 6.27-5.135zm22.787-.706H20.58v1.839h19.645v-1.839zm-5.613 3.677H20.58v1.839h14.032v-1.839zm5.613 0h-3.742v1.839h3.742v-1.839zm0-22.065h-3.742v1.84h3.742v-1.84z" fill="#242734"/><path d="M55.194 42.29H47.71V4.597C47.71 2.062 45.612 0 43.033 0H4.678C2.1 0 .001 2.062.001 4.597c0 2.535 2.098 4.597 4.677 4.597V57h39.29v-5.516h3.742v-3.678h7.484c1.547 0 2.807-1.237 2.807-2.758 0-1.52-1.26-2.758-2.807-2.758zM45.84 4.597V42.29h-1.87V7.355h-.936c-1.547 0-2.806-1.238-2.806-2.758 0-1.521 1.259-2.758 2.806-2.758 1.547 0 2.806 1.237 2.806 2.758zm-43.967 0c0-1.52 1.259-2.758 2.806-2.758h34.637a4.498 4.498 0 00-.96 2.758 4.5 4.5 0 00.96 2.758H4.678c-1.547 0-2.806-1.238-2.806-2.758zM6.549 55.16V9.194h35.549V42.29H15.753l-8.42 2.758 8.42 2.758h26.344v7.355H6.55zm6.7-10.113l1.72-.563v1.126l-1.72-.563zm32.59 4.597h-1.87v-1.839h1.87v1.839zm1.871-3.677H16.84v-1.84h30.87v1.84zm3.742 0h-1.87v-1.84h1.87v1.84zm3.742 0h-1.87v-1.84h1.87a.93.93 0 01.936.92.93.93 0 01-.936.92z" fill="#242734"/><path fill="#FFDD63" d="M17 44h31v2H17z"/></g><defs><clipPath id="clip0"><path fill="#fff" d="M0 0h58v57H0z"/></clipPath></defs></svg>