<svg width="84" height="84" fill="none" xmlns="http://www.w3.org/2000/svg"><g clip-path="url(#clip0)"><path fill="#FFDD63" d="M71 47h4v4h-4z"/><circle cx="22" cy="61" r="6" fill="#FFDD63"/><circle cx="64" cy="61" r="6" fill="#FFDD63"/><path d="M71.404 40.59l-1.988-7.954c.543-.115.951-.597.951-1.175v-1.282a5.055 5.055 0 00-5.049-5.05h-9.056v-2.645A2.487 2.487 0 0053.777 20H7.614a2.487 2.487 0 00-2.485 2.485v21.799a1.202 1.202 0 002.405 0v-21.8a.08.08 0 01.08-.08h46.163a.08.08 0 01.08.08v21.8a1.202 1.202 0 002.405 0v-1.362H70.45a3.934 3.934 0 013.735 2.725h-3.738c-.664 0-1.202.538-1.202 1.202v2.564a3.771 3.771 0 003.767 3.767h1.362v5.29h-3.143c-1.033-2.982-3.867-5.13-7.195-5.13-3.329 0-6.163 2.148-7.196 5.13h-.579v-9.057a1.202 1.202 0 00-2.404 0v9.056H28.915c-1.033-2.981-3.867-5.129-7.196-5.129-3.328 0-6.163 2.148-7.195 5.13h-6.91a.08.08 0 01-.08-.08v-2.646h5.209a1.202 1.202 0 100-2.404H1.203a1.202 1.202 0 000 2.404h3.926v2.645a2.487 2.487 0 002.485 2.485h6.494l-.002.08c0 4.198 3.415 7.613 7.613 7.613s7.614-3.415 7.614-7.613l-.002-.08h27.093l-.002.08c0 4.198 3.415 7.613 7.614 7.613 4.198 0 7.613-3.415 7.613-7.613l-.002-.08h3.93c.663 0 1.202-.538 1.202-1.203V46.849a6.34 6.34 0 00-5.375-6.258zM56.262 27.534h9.056a2.648 2.648 0 012.645 2.645v.08H56.262v-2.725zm0 12.983v-7.854h10.682l1.964 7.854H56.262zM21.719 66.164a5.215 5.215 0 01-5.21-5.21 5.215 5.215 0 015.21-5.21 5.215 5.215 0 015.21 5.21 5.215 5.215 0 01-5.21 5.21zm42.317 0a5.215 5.215 0 01-5.21-5.21 5.215 5.215 0 015.21-5.21 5.215 5.215 0 015.21 5.21 5.215 5.215 0 01-5.21 5.21zm10.338-15.388h-1.362a1.364 1.364 0 01-1.362-1.363v-1.362h2.724v2.725h0z" fill="#242734" stroke="#fff" stroke-width=".457"/><path d="M21.72 58.47a2.487 2.487 0 00-2.485 2.484 2.487 2.487 0 002.484 2.484 2.487 2.487 0 002.485-2.484 2.487 2.487 0 00-2.485-2.485zm42.316 0a2.487 2.487 0 00-2.485 2.484 2.487 2.487 0 002.485 2.484 2.487 2.487 0 002.484-2.484 2.487 2.487 0 00-2.484-2.485zM49.93 53.34H31.978a1.202 1.202 0 000 2.405H49.93a1.202 1.202 0 000-2.405zm-30.776-5.13H3.767a1.202 1.202 0 000 2.405h15.387a1.202 1.202 0 000-2.404zm22.65-16.317c-.47-.47-1.23-.47-1.7 0l-10.69 10.69-5.563-5.56a1.202 1.202 0 10-1.7 1.7l6.412 6.41a1.197 1.197 0 001.7 0l11.54-11.54c.47-.47.47-1.23.001-1.7z" fill="#242734" stroke="#fff" stroke-width=".457"/></g><defs><clipPath id="clip0"><path fill="#fff" d="M0 0h84v84H0z"/></clipPath></defs></svg>