<svg width="58" height="58" fill="none" xmlns="http://www.w3.org/2000/svg"><path d="M55.281 5.438H2.72a.907.907 0 01-.906-.907V2.72c0-.5.406-.906.906-.906h52.56c.5 0 .907.406.907.906v1.81c0 .5-.407.907-.907.907z" fill="#FFDD63"/><path d="M49.844 22.656h1.812V29h-1.812v-6.344zm-9.063 0h1.813V29H40.78v-6.344z" fill="#242734"/><path d="M54.54 35.344h-7.578l.83-4.978a2.71 2.71 0 012.68-2.272h.554a2.71 2.71 0 012.682 2.272l.831 4.978zm-12.852 0a3.63 3.63 0 01-3.626-3.625c0-2 1.626-3.625 3.626-3.625 1.999 0 3.624 1.626 3.624 3.625s-1.625 3.625-3.624 3.625zm9.968 13.594h-3.625a1.812 1.812 0 01-1.812-1.813v-1.813h7.25v1.813a1.812 1.812 0 01-1.813 1.813zm-12.687 0h-3.625a1.812 1.812 0 01-1.813-1.813v-1.813h7.25v1.813a1.812 1.812 0 01-1.812 1.813zm-12.688 0h-3.625a1.812 1.812 0 01-1.812-1.813v-1.813h7.25v1.813a1.812 1.812 0 01-1.813 1.813z" fill="#FFDD63"/><path d="M55.281 5.438H53.47V19.03H42.594V5.438H40.78V19.03H29.906V5.438h-1.812V19.03H17.219V5.438h-1.813V19.03H4.531V5.438H2.72v15.406h52.56V5.437z" fill="#242734"/><path d="M19.031 9.969h1.813v5.437H19.03V9.97zm-7.25 0h1.813v5.437H11.78V9.97zm32.625 0h1.813v5.437h-1.813V9.97zm-7.25 0h1.813v5.437h-1.813V9.97zm-4.555 27.187a4.48 4.48 0 00.93-2.718v-4.532h1.813v-1.812h-3.792c.102-.285.167-.588.167-.907A2.722 2.722 0 0029 24.47h-3.625a2.722 2.722 0 00-2.719 2.718c0 .32.066.622.167.907h-3.792v1.812h1.813v4.532c0 1.024.354 1.959.93 2.718h-4.555v19.938h39.875V37.156H32.6zm22.68 3.625H44.406V38.97h10.875v1.812zm-23.562 0V38.97h10.875v1.812H31.719zm10.875 1.813V55.28H31.719V42.594h10.875zM24.469 27.187c0-.5.407-.906.906-.906H29a.907.907 0 010 1.813h-3.625a.907.907 0 01-.906-.907zm.906 2.72h6.344v1.812h-9.063v-1.813h2.719zm-2.719 4.53v-.906h9.063v.907A2.722 2.722 0 0129 37.156h-3.625a2.722 2.722 0 01-2.719-2.718zm2.719 4.532h4.531v1.812H19.031V38.97h6.344zm-6.344 3.625h10.875V55.28H19.031V42.594zM44.406 55.28V42.594h10.875V55.28H44.406zM9.063 22.656a4.536 4.536 0 00-4.532 4.532v6.343H.906v23.563h12.688v-14.5h1.812v-5.438h-7.25v-3.625H6.344v-6.343a2.722 2.722 0 012.718-2.72 2.722 2.722 0 012.72 2.72H9.968V29h5.437v-1.813h-1.812a4.537 4.537 0 00-4.531-4.53zm2.718 32.625H2.72V42.594h9.062V55.28zm1.813-14.5H2.719V38.97h10.875v1.812zM2.719 37.156v-1.812h3.625v1.812H2.719z" fill="#242734"/><path d="M4.531 51.656h1.813v1.813H4.53v-1.813zm0-7.25h1.813v1.813H4.53v-1.813zm0 3.625h1.813v1.813H4.53V48.03z" fill="#242734"/></svg>