<svg width="110" height="72" fill="none" xmlns="http://www.w3.org/2000/svg"><g filter="url(#filter0_ddd)"><path fill="#fff" d="M20 10h70v32H20z"/></g><path d="M73.354 26.354a.5.5 0 000-.708l-3.182-3.181a.5.5 0 10-.707.707L72.293 26l-2.829 2.828a.5.5 0 10.708.707l3.182-3.181zM53 26.5h20v-1H53v1zm-22.492-6.827l2.844-.656a.66.66 0 01.752.38l1.313 3.062a.654.654 0 01-.19.766l-1.656 1.356a10.134 10.134 0 004.845 4.846l1.356-1.658a.655.655 0 01.766-.188l3.063 1.312a.664.664 0 01.382.755l-.656 2.844a.656.656 0 01-.64.508C35.685 33 30 27.326 30 20.313c0-.306.21-.572.508-.64z" fill="#242734"/><defs><filter id="filter0_ddd" x="0" y="0" width="110" height="72" filterUnits="userSpaceOnUse" color-interpolation-filters="sRGB"><feFlood flood-opacity="0" result="BackgroundImageFix"/><feColorMatrix in="SourceAlpha" values="0 0 0 0 0 0 0 0 0 0 0 0 0 0 0 0 0 0 127 0"/><feOffset/><feGaussianBlur stdDeviation=".5"/><feColorMatrix values="0 0 0 0 0 0 0 0 0 0 0 0 0 0 0 0 0 0 0.04 0"/><feBlend in2="BackgroundImageFix" result="effect1_dropShadow"/><feColorMatrix in="SourceAlpha" values="0 0 0 0 0 0 0 0 0 0 0 0 0 0 0 0 0 0 127 0"/><feOffset dy="2"/><feGaussianBlur stdDeviation="3"/><feColorMatrix values="0 0 0 0 0 0 0 0 0 0 0 0 0 0 0 0 0 0 0.04 0"/><feBlend in2="effect1_dropShadow" result="effect2_dropShadow"/><feColorMatrix in="SourceAlpha" values="0 0 0 0 0 0 0 0 0 0 0 0 0 0 0 0 0 0 127 0"/><feOffset dy="10"/><feGaussianBlur stdDeviation="10"/><feColorMatrix values="0 0 0 0 0 0 0 0 0 0 0 0 0 0 0 0 0 0 0.04 0"/><feBlend in2="effect2_dropShadow" result="effect3_dropShadow"/><feBlend in="SourceGraphic" in2="effect3_dropShadow" result="shape"/></filter></defs></svg>