<svg width="12" height="7" viewBox="0 0 12 7" fill="none" xmlns="http://www.w3.org/2000/svg">
<path d="M0.208646 1.23166C-0.0695824 0.953437 -0.0695825 0.502339 0.208646 0.224111C0.486874 -0.0541175 0.937972 -0.0541177 1.2162 0.224111L6.42639 5.43419C6.70462 5.71242 6.70462 6.16352 6.42639 6.44174C6.14816 6.71997 5.69706 6.71997 5.41883 6.44174L0.208646 1.23166Z" fill="#242734"/>
<path d="M5.45605 5.41142C5.18638 5.69791 5.20001 6.14877 5.4865 6.41844C5.77299 6.68811 6.22384 6.67448 6.49351 6.38799L11.3764 1.20068C11.646 0.914191 11.6324 0.463335 11.3459 0.193663C11.0594 -0.0760083 10.6086 -0.0623766 10.3389 0.224111L5.45605 5.41142Z" fill="#242734"/>
</svg>
